{
    "asset" : {
        "generator" : "Khronos glTF Blender I/O v1.7.33",
        "version" : "2.0"
    },
    "scene" : 0,
    "scenes" : [
        {
            "name" : "Scene",
            "nodes" : [
                0,
                1,
                2,
                3
            ]
        }
    ],
    "nodes" : [
        {
            "mesh" : 0,
            "name" : "Patpat_kasa",
            "scale" : [
                0.009999999776482582,
                0.009999999776482582,
                0.009999999776482582
            ],
            "translation" : [
                0,
                1.1528880596160889,
                0
            ]
        },
        {
            "mesh" : 1,
            "name" : "Patpat_Arkateker",
            "scale" : [
                0.009999999776482582,
                0.009999999776482582,
                0.009999999776482582
            ],
            "translation" : [
                -0.0016256714006885886,
                0.45949622988700867,
                -1.8517602682113647
            ]
        },
        {
            "mesh" : 2,
            "name" : "Patpat_Direksiyon",
            "scale" : [
                0.009999999776482582,
                0.009999999776482582,
                0.009999999776482582
            ],
            "translation" : [
                0.004523925483226776,
                1.7965987920761108,
                0.3163783848285675
            ]
        },
        {
            "mesh" : 3,
            "name" : "Patpat_Onteker",
            "scale" : [
                0.009999999776482582,
                0.009999999776482582,
                0.009999999776482582
            ],
            "translation" : [
                -0.0016256714006885886,
                0.4594963788986206,
                1.4901586771011353
            ]
        }
    ],
    "animations" : [
        {
            "channels" : [
                {
                    "sampler" : 0,
                    "target" : {
                        "node" : 0,
                        "path" : "translation"
                    }
                },
                {
                    "sampler" : 1,
                    "target" : {
                        "node" : 0,
                        "path" : "rotation"
                    }
                },
                {
                    "sampler" : 2,
                    "target" : {
                        "node" : 0,
                        "path" : "scale"
                    }
                }
            ],
            "name" : "Patpat_kasa|Take 001|BaseLayer",
            "samplers" : [
                {
                    "input" : 16,
                    "interpolation" : "STEP",
                    "output" : 17
                },
                {
                    "input" : 16,
                    "interpolation" : "STEP",
                    "output" : 18
                },
                {
                    "input" : 16,
                    "interpolation" : "STEP",
                    "output" : 19
                }
            ]
        },
        {
            "channels" : [
                {
                    "sampler" : 0,
                    "target" : {
                        "node" : 1,
                        "path" : "translation"
                    }
                },
                {
                    "sampler" : 1,
                    "target" : {
                        "node" : 1,
                        "path" : "rotation"
                    }
                },
                {
                    "sampler" : 2,
                    "target" : {
                        "node" : 1,
                        "path" : "scale"
                    }
                }
            ],
            "name" : "Patpat_Arkateker|Take 001|BaseLayer",
            "samplers" : [
                {
                    "input" : 16,
                    "interpolation" : "STEP",
                    "output" : 20
                },
                {
                    "input" : 16,
                    "interpolation" : "STEP",
                    "output" : 21
                },
                {
                    "input" : 16,
                    "interpolation" : "STEP",
                    "output" : 22
                }
            ]
        },
        {
            "channels" : [
                {
                    "sampler" : 0,
                    "target" : {
                        "node" : 2,
                        "path" : "translation"
                    }
                },
                {
                    "sampler" : 1,
                    "target" : {
                        "node" : 2,
                        "path" : "rotation"
                    }
                },
                {
                    "sampler" : 2,
                    "target" : {
                        "node" : 2,
                        "path" : "scale"
                    }
                }
            ],
            "name" : "Patpat_Direksiyon|Take 001|BaseLayer",
            "samplers" : [
                {
                    "input" : 16,
                    "interpolation" : "STEP",
                    "output" : 23
                },
                {
                    "input" : 16,
                    "interpolation" : "STEP",
                    "output" : 24
                },
                {
                    "input" : 16,
                    "interpolation" : "STEP",
                    "output" : 25
                }
            ]
        },
        {
            "channels" : [
                {
                    "sampler" : 0,
                    "target" : {
                        "node" : 3,
                        "path" : "translation"
                    }
                },
                {
                    "sampler" : 1,
                    "target" : {
                        "node" : 3,
                        "path" : "rotation"
                    }
                },
                {
                    "sampler" : 2,
                    "target" : {
                        "node" : 3,
                        "path" : "scale"
                    }
                }
            ],
            "name" : "Patpat_Onteker|Take 001|BaseLayer",
            "samplers" : [
                {
                    "input" : 16,
                    "interpolation" : "STEP",
                    "output" : 26
                },
                {
                    "input" : 16,
                    "interpolation" : "STEP",
                    "output" : 27
                },
                {
                    "input" : 16,
                    "interpolation" : "STEP",
                    "output" : 28
                }
            ]
        }
    ],
    "materials" : [
        {
            "doubleSided" : true,
            "name" : "patpat_mat",
            "normalTexture" : {
                "index" : 0
            },
            "pbrMetallicRoughness" : {
                "baseColorTexture" : {
                    "index" : 1
                },
                "roughnessFactor" : 0.858578622341156
            }
        }
    ],
    "meshes" : [
        {
            "name" : "Mesh",
            "primitives" : [
                {
                    "attributes" : {
                        "POSITION" : 0,
                        "NORMAL" : 1,
                        "TEXCOORD_0" : 2
                    },
                    "indices" : 3,
                    "material" : 0
                }
            ]
        },
        {
            "name" : "Mesh.001",
            "primitives" : [
                {
                    "attributes" : {
                        "POSITION" : 4,
                        "NORMAL" : 5,
                        "TEXCOORD_0" : 6
                    },
                    "indices" : 7,
                    "material" : 0
                }
            ]
        },
        {
            "name" : "Mesh.002",
            "primitives" : [
                {
                    "attributes" : {
                        "POSITION" : 8,
                        "NORMAL" : 9,
                        "TEXCOORD_0" : 10
                    },
                    "indices" : 11,
                    "material" : 0
                }
            ]
        },
        {
            "name" : "Mesh.003",
            "primitives" : [
                {
                    "attributes" : {
                        "POSITION" : 12,
                        "NORMAL" : 13,
                        "TEXCOORD_0" : 14
                    },
                    "indices" : 15,
                    "material" : 0
                }
            ]
        }
    ],
    "textures" : [
        {
            "sampler" : 0,
            "source" : 0
        },
        {
            "sampler" : 0,
            "source" : 1
        }
    ],
    "images" : [
        {
            "mimeType" : "image/png",
            "name" : "Patpat_Normal",
            "uri" : "Patpat_Normal.png"
        },
        {
            "mimeType" : "image/png",
            "name" : "Patpat_Diffuse",
            "uri" : "Patpat_Diffuse.png"
        }
    ],
    "accessors" : [
        {
            "bufferView" : 0,
            "componentType" : 5126,
            "count" : 7761,
            "max" : [
                86.23664855957031,
                80.33622741699219,
                273.9713439941406
            ],
            "min" : [
                -86.2995376586914,
                -84.59678649902344,
                -296.4084777832031
            ],
            "type" : "VEC3"
        },
        {
            "bufferView" : 1,
            "componentType" : 5126,
            "count" : 7761,
            "type" : "VEC3"
        },
        {
            "bufferView" : 2,
            "componentType" : 5126,
            "count" : 7761,
            "type" : "VEC2"
        },
        {
            "bufferView" : 3,
            "componentType" : 5123,
            "count" : 19344,
            "type" : "SCALAR"
        },
        {
            "bufferView" : 4,
            "componentType" : 5126,
            "count" : 682,
            "max" : [
                78.66776275634766,
                45.94965744018555,
                45.94965362548828
            ],
            "min" : [
                -77.98509216308594,
                -45.94965744018555,
                -45.94965362548828
            ],
            "type" : "VEC3"
        },
        {
            "bufferView" : 5,
            "componentType" : 5126,
            "count" : 682,
            "type" : "VEC3"
        },
        {
            "bufferView" : 6,
            "componentType" : 5126,
            "count" : 682,
            "type" : "VEC2"
        },
        {
            "bufferView" : 7,
            "componentType" : 5123,
            "count" : 2256,
            "type" : "SCALAR"
        },
        {
            "bufferView" : 8,
            "componentType" : 5126,
            "count" : 495,
            "max" : [
                29.534828186035156,
                27.67777442932129,
                21.159801483154297
            ],
            "min" : [
                -29.57539176940918,
                -1.3317153453826904,
                -33.45683670043945
            ],
            "type" : "VEC3"
        },
        {
            "bufferView" : 9,
            "componentType" : 5126,
            "count" : 495,
            "type" : "VEC3"
        },
        {
            "bufferView" : 10,
            "componentType" : 5126,
            "count" : 495,
            "type" : "VEC2"
        },
        {
            "bufferView" : 11,
            "componentType" : 5123,
            "count" : 1584,
            "type" : "SCALAR"
        },
        {
            "bufferView" : 12,
            "componentType" : 5126,
            "count" : 682,
            "max" : [
                71.04273986816406,
                45.94965362548828,
                45.94965744018555
            ],
            "min" : [
                -71.04273223876953,
                -45.94965362548828,
                -45.94965744018555
            ],
            "type" : "VEC3"
        },
        {
            "bufferView" : 13,
            "componentType" : 5126,
            "count" : 682,
            "type" : "VEC3"
        },
        {
            "bufferView" : 14,
            "componentType" : 5126,
            "count" : 682,
            "type" : "VEC2"
        },
        {
            "bufferView" : 15,
            "componentType" : 5123,
            "count" : 2256,
            "type" : "SCALAR"
        },
        {
            "bufferView" : 16,
            "componentType" : 5126,
            "count" : 1,
            "max" : [
                0.03333333333333333
            ],
            "min" : [
                0.03333333333333333
            ],
            "type" : "SCALAR"
        },
        {
            "bufferView" : 17,
            "componentType" : 5126,
            "count" : 1,
            "type" : "VEC3"
        },
        {
            "bufferView" : 18,
            "componentType" : 5126,
            "count" : 1,
            "type" : "VEC4"
        },
        {
            "bufferView" : 19,
            "componentType" : 5126,
            "count" : 1,
            "type" : "VEC3"
        },
        {
            "bufferView" : 20,
            "componentType" : 5126,
            "count" : 1,
            "type" : "VEC3"
        },
        {
            "bufferView" : 21,
            "componentType" : 5126,
            "count" : 1,
            "type" : "VEC4"
        },
        {
            "bufferView" : 22,
            "componentType" : 5126,
            "count" : 1,
            "type" : "VEC3"
        },
        {
            "bufferView" : 23,
            "componentType" : 5126,
            "count" : 1,
            "type" : "VEC3"
        },
        {
            "bufferView" : 24,
            "componentType" : 5126,
            "count" : 1,
            "type" : "VEC4"
        },
        {
            "bufferView" : 25,
            "componentType" : 5126,
            "count" : 1,
            "type" : "VEC3"
        },
        {
            "bufferView" : 26,
            "componentType" : 5126,
            "count" : 1,
            "type" : "VEC3"
        },
        {
            "bufferView" : 27,
            "componentType" : 5126,
            "count" : 1,
            "type" : "VEC4"
        },
        {
            "bufferView" : 28,
            "componentType" : 5126,
            "count" : 1,
            "type" : "VEC3"
        }
    ],
    "bufferViews" : [
        {
            "buffer" : 0,
            "byteLength" : 93132,
            "byteOffset" : 0
        },
        {
            "buffer" : 0,
            "byteLength" : 93132,
            "byteOffset" : 93132
        },
        {
            "buffer" : 0,
            "byteLength" : 62088,
            "byteOffset" : 186264
        },
        {
            "buffer" : 0,
            "byteLength" : 38688,
            "byteOffset" : 248352
        },
        {
            "buffer" : 0,
            "byteLength" : 8184,
            "byteOffset" : 287040
        },
        {
            "buffer" : 0,
            "byteLength" : 8184,
            "byteOffset" : 295224
        },
        {
            "buffer" : 0,
            "byteLength" : 5456,
            "byteOffset" : 303408
        },
        {
            "buffer" : 0,
            "byteLength" : 4512,
            "byteOffset" : 308864
        },
        {
            "buffer" : 0,
            "byteLength" : 5940,
            "byteOffset" : 313376
        },
        {
            "buffer" : 0,
            "byteLength" : 5940,
            "byteOffset" : 319316
        },
        {
            "buffer" : 0,
            "byteLength" : 3960,
            "byteOffset" : 325256
        },
        {
            "buffer" : 0,
            "byteLength" : 3168,
            "byteOffset" : 329216
        },
        {
            "buffer" : 0,
            "byteLength" : 8184,
            "byteOffset" : 332384
        },
        {
            "buffer" : 0,
            "byteLength" : 8184,
            "byteOffset" : 340568
        },
        {
            "buffer" : 0,
            "byteLength" : 5456,
            "byteOffset" : 348752
        },
        {
            "buffer" : 0,
            "byteLength" : 4512,
            "byteOffset" : 354208
        },
        {
            "buffer" : 0,
            "byteLength" : 4,
            "byteOffset" : 358720
        },
        {
            "buffer" : 0,
            "byteLength" : 12,
            "byteOffset" : 358724
        },
        {
            "buffer" : 0,
            "byteLength" : 16,
            "byteOffset" : 358736
        },
        {
            "buffer" : 0,
            "byteLength" : 12,
            "byteOffset" : 358752
        },
        {
            "buffer" : 0,
            "byteLength" : 12,
            "byteOffset" : 358764
        },
        {
            "buffer" : 0,
            "byteLength" : 16,
            "byteOffset" : 358776
        },
        {
            "buffer" : 0,
            "byteLength" : 12,
            "byteOffset" : 358792
        },
        {
            "buffer" : 0,
            "byteLength" : 12,
            "byteOffset" : 358804
        },
        {
            "buffer" : 0,
            "byteLength" : 16,
            "byteOffset" : 358816
        },
        {
            "buffer" : 0,
            "byteLength" : 12,
            "byteOffset" : 358832
        },
        {
            "buffer" : 0,
            "byteLength" : 12,
            "byteOffset" : 358844
        },
        {
            "buffer" : 0,
            "byteLength" : 16,
            "byteOffset" : 358856
        },
        {
            "buffer" : 0,
            "byteLength" : 12,
            "byteOffset" : 358872
        }
    ],
    "samplers" : [
        {
            "magFilter" : 9729,
            "minFilter" : 9987
        }
    ],
    "buffers" : [
        {
            "byteLength" : 358884,
            "uri" : "tractor.bin"
        }
    ]
}
